<?xml version="1.0" standalone="no"?>
<!DOCTYPE svg PUBLIC "-//W3C//DTD SVG 20010904//EN"
 "http://www.w3.org/TR/2001/REC-SVG-20010904/DTD/svg10.dtd">
<svg version="1.0" xmlns="http://www.w3.org/2000/svg"
 width="599.000000pt" height="599.000000pt" viewBox="0 0 599.000000 599.000000"
 preserveAspectRatio="xMidYMid meet">
<metadata>
Created by potrace 1.14, written by Peter Selinger 2001-2017
</metadata>
<g transform="translate(0.000000,599.000000) scale(0.100000,-0.100000)"
fill="#000000" stroke="none">
<path d="M1344 3263 c4 -1501 8 -2849 8 -2997 l0 -269 82 6 c44 3 91 8 103 11
12 2 50 7 84 11 35 4 66 8 69 10 3 1 46 6 95 9 50 4 113 9 140 12 28 2 97 6
155 9 58 3 132 7 165 9 33 3 107 7 165 11 58 4 108 11 111 17 3 5 6 544 7
1196 0 653 1 1221 1 1262 l1 75 46 -130 c25 -71 54 -155 64 -185 10 -30 42
-120 70 -200 29 -80 58 -163 65 -185 8 -22 34 -98 60 -170 26 -71 53 -148 60
-170 7 -22 38 -112 70 -200 31 -88 61 -171 65 -185 5 -14 31 -90 60 -170 28
-80 68 -194 90 -255 57 -163 112 -321 175 -500 31 -88 59 -163 64 -168 4 -4
68 -10 142 -12 129 -4 243 -11 325 -19 22 -3 73 -7 114 -11 41 -4 89 -8 105
-10 17 -2 59 -7 95 -10 60 -6 95 -10 175 -20 17 -2 75 -8 130 -15 55 -6 108
-13 118 -16 16 -5 17 142 17 2990 l0 2996 -590 0 -590 0 0 -72 c0 -40 -1 -632
-2 -1315 -1 -683 -3 -1241 -4 -1240 -3 4 -171 480 -190 537 -8 25 -19 54 -24
65 -10 23 -22 56 -26 70 -3 12 -31 91 -104 295 -29 80 -78 219 -110 310 -81
230 -101 286 -187 525 -41 116 -81 230 -89 255 -8 25 -19 54 -24 65 -5 11 -30
81 -56 155 -26 74 -64 182 -84 240 l-37 105 -593 3 -593 2 7 -2727z"/>
</g>
</svg>
